<?xml version="1.0" encoding="UTF-8" standalone="no"?><svg xmlns="http://www.w3.org/2000/svg" xmlns:xlink="http://www.w3.org/1999/xlink" contentScriptType="application/ecmascript" contentStyleType="text/css" height="592.2945px" preserveAspectRatio="none" style="width:238px;height:592px;" version="1.1" viewBox="0 0 238 592" width="238.8699px" zoomAndPan="magnify"><defs><filter height="300%" id="f15c9b2afdh8nu" width="300%" x="-1" y="-1"><feGaussianBlur result="blurOut" stdDeviation="1.0273972602739727"/><feColorMatrix in="blurOut" result="blurOut2" type="matrix" values="0 0 0 0 0 0 0 0 0 0 0 0 0 0 0 0 0 0 .4 0"/><feOffset dx="2.0547945205479454" dy="2.0547945205479454" in="blurOut2" result="blurOut3"/><feBlend in="SourceGraphic" in2="blurOut3" mode="normal"/></filter></defs><g><!--cluster TechRelief--><rect fill="#FFFFFF" filter="url(#f15c9b2afdh8nu)" height="574.3151" style="stroke: #000000; stroke-width: 0.7705479452054795;" width="125.3425" x="107.8767" y="12.3288"/><text fill="#000000" font-family="sans-serif" font-size="7.1918" font-weight="bold" lengthAdjust="spacingAndGlyphs" textLength="38.5274" x="151.2842" y="20.8219">TechRelief</text><ellipse cx="170.451" cy="76.6244" fill="#FEFECE" filter="url(#f15c9b2afdh8nu)" rx="34.064" ry="8.0457" style="stroke: #A80036; stroke-width: 0.7705479452054795;"/><text fill="#000000" font-family="sans-serif" font-size="7.1918" lengthAdjust="spacingAndGlyphs" textLength="46.7466" x="147.0777" y="79.3495">Donate device</text><ellipse cx="170.4926" cy="112.9513" fill="#FEFECE" filter="url(#f15c9b2afdh8nu)" rx="44.8933" ry="10.2115" style="stroke: #A80036; stroke-width: 0.7705479452054795;"/><text fill="#000000" font-family="sans-serif" font-size="7.1918" lengthAdjust="spacingAndGlyphs" textLength="73.9726" x="133.5063" y="115.6763">Update account details</text><ellipse cx="170.5928" cy="151.0877" fill="#FEFECE" filter="url(#f15c9b2afdh8nu)" rx="42.9387" ry="9.8206" style="stroke: #A80036; stroke-width: 0.7705479452054795;"/><text fill="#000000" font-family="sans-serif" font-size="7.1918" lengthAdjust="spacingAndGlyphs" textLength="69.3493" x="135.9181" y="153.8127">Update device details</text><ellipse cx="170.4633" cy="40.5139" fill="#FEFECE" filter="url(#f15c9b2afdh8nu)" rx="42.2954" ry="9.692" style="stroke: #A80036; stroke-width: 0.7705479452054795;"/><text fill="#000000" font-family="sans-serif" font-size="7.1918" lengthAdjust="spacingAndGlyphs" textLength="67.8082" x="136.5591" y="43.2389">Update device status</text><ellipse cx="170.4747" cy="409.3518" fill="#FEFECE" filter="url(#f15c9b2afdh8nu)" rx="41.0226" ry="9.4374" style="stroke: #A80036; stroke-width: 0.7705479452054795;"/><text fill="#000000" font-family="sans-serif" font-size="7.1918" lengthAdjust="spacingAndGlyphs" textLength="64.726" x="138.1117" y="412.0768">Register beneficiary</text><ellipse cx="170.5213" cy="188.4193" fill="#FEFECE" filter="url(#f15c9b2afdh8nu)" rx="40.8124" ry="9.3954" style="stroke: #A80036; stroke-width: 0.7705479452054795;"/><text fill="#000000" font-family="sans-serif" font-size="7.1918" lengthAdjust="spacingAndGlyphs" textLength="64.2123" x="138.4151" y="191.1443">Update NGO details</text><ellipse cx="170.6128" cy="224.9102" fill="#FEFECE" filter="url(#f15c9b2afdh8nu)" rx="38.3354" ry="8.9" style="stroke: #A80036; stroke-width: 0.7705479452054795;"/><text fill="#000000" font-family="sans-serif" font-size="7.1918" lengthAdjust="spacingAndGlyphs" textLength="58.0479" x="141.5888" y="227.6352">View beneficiaries</text><ellipse cx="170.6147" cy="263.0271" fill="#FEFECE" filter="url(#f15c9b2afdh8nu)" rx="49.125" ry="11.0579" style="stroke: #A80036; stroke-width: 0.7705479452054795;"/><text fill="#000000" font-family="sans-serif" font-size="7.1918" lengthAdjust="spacingAndGlyphs" textLength="83.7329" x="128.7483" y="265.7521">Update/Delete beneficiary</text><ellipse cx="170.5573" cy="299.9752" fill="#FEFECE" filter="url(#f15c9b2afdh8nu)" rx="33.143" ry="7.9375" style="stroke: #A80036; stroke-width: 0.7705479452054795;"/><text fill="#000000" font-family="sans-serif" font-size="7.1918" lengthAdjust="spacingAndGlyphs" textLength="44.6918" x="148.2115" y="302.7002">Assign device</text><ellipse cx="170.5103" cy="335.8486" fill="#FEFECE" filter="url(#f15c9b2afdh8nu)" rx="43.3699" ry="9.9069" style="stroke: #A80036; stroke-width: 0.7705479452054795;"/><text fill="#000000" font-family="sans-serif" font-size="7.1918" lengthAdjust="spacingAndGlyphs" textLength="70.3767" x="135.322" y="338.5736">View donated devices</text><ellipse cx="170.453" cy="372.9776" fill="#FEFECE" filter="url(#f15c9b2afdh8nu)" rx="38.9462" ry="9.0221" style="stroke: #A80036; stroke-width: 0.7705479452054795;"/><text fill="#000000" font-family="sans-serif" font-size="7.1918" lengthAdjust="spacingAndGlyphs" textLength="59.589" x="140.6585" y="375.7026">View device status</text><ellipse cx="170.4932" cy="449.013" fill="#FEFECE" filter="url(#f15c9b2afdh8nu)" rx="54.3973" ry="12.1123" style="stroke: #A80036; stroke-width: 0.7705479452054795;"/><text fill="#000000" font-family="sans-serif" font-size="7.1918" lengthAdjust="spacingAndGlyphs" textLength="95.5479" x="122.7192" y="451.738">Update device tracking status</text><ellipse cx="170.6058" cy="486.9615" fill="#FEFECE" filter="url(#f15c9b2afdh8nu)" rx="17.5236" ry="7.9375" style="stroke: #A80036; stroke-width: 0.7705479452054795;"/><text fill="#000000" font-family="sans-serif" font-size="7.1918" lengthAdjust="spacingAndGlyphs" textLength="22.6027" x="159.3045" y="489.6865">Signup</text><ellipse cx="170.5876" cy="520.8656" fill="#FEFECE" filter="url(#f15c9b2afdh8nu)" rx="15.7074" ry="7.9375" style="stroke: #A80036; stroke-width: 0.7705479452054795;"/><text fill="#000000" font-family="sans-serif" font-size="7.1918" lengthAdjust="spacingAndGlyphs" textLength="20.0342" x="160.5705" y="523.5906">Signin</text><ellipse cx="170.4287" cy="556.3118" fill="#FEFECE" filter="url(#f15c9b2afdh8nu)" rx="41.2335" ry="9.4796" style="stroke: #A80036; stroke-width: 0.7705479452054795;"/><text fill="#000000" font-family="sans-serif" font-size="7.1918" lengthAdjust="spacingAndGlyphs" textLength="65.2397" x="137.8088" y="559.0368">Verify account email</text><!--entity User--><ellipse cx="10.7877" cy="442.5514" fill="#FEFECE" filter="url(#f15c9b2afdh8nu)" rx="4.1096" ry="4.1096" style="stroke: #A80036; stroke-width: 1.0273972602739727;"/><path d="M10.7877,446.661 L10.7877,460.5308 M4.1096,450.7705 L17.4658,450.7705 M10.7877,460.5308 L4.1096,468.2363 M10.7877,460.5308 L17.4658,468.2363 " fill="none" filter="url(#f15c9b2afdh8nu)" style="stroke: #A80036; stroke-width: 1.0273972602739727;"/><text fill="#000000" font-family="sans-serif" font-size="7.1918" lengthAdjust="spacingAndGlyphs" textLength="14.8973" x="3.339" y="479.2979">User</text><!--entity Donor--><ellipse cx="67.2945" cy="96.3185" fill="#FEFECE" filter="url(#f15c9b2afdh8nu)" rx="4.1096" ry="4.1096" style="stroke: #A80036; stroke-width: 1.0273972602739727;"/><path d="M67.2945,100.4281 L67.2945,114.2979 M60.6164,104.5377 L73.9726,104.5377 M67.2945,114.2979 L60.6164,122.0034 M67.2945,114.2979 L73.9726,122.0034 " fill="none" filter="url(#f15c9b2afdh8nu)" style="stroke: #A80036; stroke-width: 1.0273972602739727;"/><text fill="#000000" font-family="sans-serif" font-size="7.1918" lengthAdjust="spacingAndGlyphs" textLength="20.0342" x="57.2774" y="133.065">Donor</text><!--entity NGO--><ellipse cx="67.2945" cy="301.2842" fill="#FEFECE" filter="url(#f15c9b2afdh8nu)" rx="4.1096" ry="4.1096" style="stroke: #A80036; stroke-width: 1.0273972602739727;"/><path d="M67.2945,305.3938 L67.2945,319.2637 M60.6164,309.5034 L73.9726,309.5034 M67.2945,319.2637 L60.6164,326.9692 M67.2945,319.2637 L73.9726,326.9692 " fill="none" filter="url(#f15c9b2afdh8nu)" style="stroke: #A80036; stroke-width: 1.0273972602739727;"/><text fill="#000000" font-family="sans-serif" font-size="7.1918" lengthAdjust="spacingAndGlyphs" textLength="15.9247" x="59.3322" y="338.0308">NGO</text><!--entity Beneficiary--><ellipse cx="67.2945" cy="417.8938" fill="#FEFECE" filter="url(#f15c9b2afdh8nu)" rx="4.1096" ry="4.1096" style="stroke: #A80036; stroke-width: 1.0273972602739727;"/><path d="M67.2945,422.0034 L67.2945,435.8733 M60.6164,426.113 L73.9726,426.113 M67.2945,435.8733 L60.6164,443.5788 M67.2945,435.8733 L73.9726,443.5788 " fill="none" filter="url(#f15c9b2afdh8nu)" style="stroke: #A80036; stroke-width: 1.0273972602739727;"/><text fill="#000000" font-family="sans-serif" font-size="7.1918" lengthAdjust="spacingAndGlyphs" textLength="35.9589" x="49.3151" y="454.6403">Beneficiary</text><!--reverse link User to Donor--><path d="M16.4724,426.9755 C27.636,357.3067 53.7505,194.3322 63.2481,135.0622 " fill="none" id="User&lt;-Donor" style="stroke: #A80036; stroke-width: 0.5136986301369864;"/><polygon fill="none" points="19.9901,427.7497,14.8139,437.3255,12.889,426.6118,19.9901,427.7497" style="stroke: #A80036; stroke-width: 0.5136986301369864;"/><!--reverse link User to NGO--><path d="M22.2613,431.3394 C33.2297,403.4106 49.8049,361.2051 59.3317,336.9467 " fill="none" id="User&lt;-NGO" style="stroke: #A80036; stroke-width: 0.5136986301369864;"/><polygon fill="none" points="25.6002,432.6745,18.4975,440.9229,18.9061,430.0459,25.6002,432.6745" style="stroke: #A80036; stroke-width: 0.5136986301369864;"/><!--reverse link User to Beneficiary--><path d="M27.9755,451.836 C34.6956,448.8493 42.4518,445.4019 49.2553,442.3783 " fill="none" id="User&lt;-Beneficiary" style="stroke: #A80036; stroke-width: 0.5136986301369864;"/><polygon fill="none" points="29.4032,455.1365,18.5543,456.0231,26.4824,448.5642,29.4032,455.1365" style="stroke: #A80036; stroke-width: 0.5136986301369864;"/><!--link User to Signup--><path d="M18.7113,460.8072 C34.3729,464.0795 72.0098,471.8029 103.7671,477.226 C120.732,480.1233 140.23,482.9327 153.6616,484.7877 " fill="none" id="User-Signup" style="stroke: #A80036; stroke-width: 0.5136986301369864;"/><!--link User to Signin--><path d="M18.5146,463.3531 C33.804,471.9159 70.7759,491.8829 103.7671,503.9384 C121.2786,510.337 142.2354,515.2634 155.8248,518.1164 " fill="none" id="User-Signin" style="stroke: #A80036; stroke-width: 0.5136986301369864;"/><!--link User to Verify account email--><path d="M18.6733,468.0103 C33.1384,484.5745 67.0464,520.3772 103.7671,537.8425 C114.8769,543.1269 127.7743,547.1524 139.2221,550.077 " fill="none" id="User-Verify account email" style="stroke: #A80036; stroke-width: 0.5136986301369864;"/><!--link Donor to Donate device--><path d="M77.4134,106.95 C84.4818,102.7017 94.4435,97.1512 103.7671,93.4932 C116.701,88.4183 131.6543,84.4413 144.0796,81.619 " fill="none" id="Donor-Donate device" style="stroke: #A80036; stroke-width: 0.5136986301369864;"/><!--link Donor to Update account details--><path d="M77.4252,113.0137 C88.5092,113.0137 107.5058,113.0137 125.42,113.0137 " fill="none" id="Donor-Update account details" style="stroke: #A80036; stroke-width: 0.5136986301369864;"/><!--link Donor to Update device details--><path d="M77.3163,118.7363 C84.4192,122.8372 94.4656,128.2752 103.7671,132.0205 C115.5354,136.7589 128.9199,140.832 140.5639,143.9784 " fill="none" id="Donor-Update device details" style="stroke: #A80036; stroke-width: 0.5136986301369864;"/><!--link Donor to Update device status--><path d="M77.3229,92.2182 C83.4149,81.0514 92.3296,67.9058 103.7671,59.589 C112.817,53.0086 124.0962,48.6986 134.7688,45.8784 " fill="none" id="Donor-Update device status" style="stroke: #A80036; stroke-width: 0.5136986301369864;"/><!--link NGO to Register beneficiary--><path d="M73.3397,339.8568 C78.5661,356.1878 88.0099,377.8541 103.7671,390.9247 C112.2709,397.9783 123.281,402.3493 133.876,405.055 " fill="none" id="NGO-Register beneficiary" style="stroke: #A80036; stroke-width: 0.5136986301369864;"/><!--link NGO to Update NGO details--><path d="M68.9327,296.0096 C71.4051,271.0002 79.2205,230.5752 103.7671,207.0205 C111.6529,199.4538 122.3671,194.9332 132.8805,192.2486 " fill="none" id="NGO-Update NGO details" style="stroke: #A80036; stroke-width: 0.5136986301369864;"/><!--link NGO to View beneficiaries--><path d="M72.994,295.9824 C78.0837,279.1207 87.5101,256.5159 103.7671,242.9795 C112.6531,235.5807 124.3192,231.2075 135.3827,228.6293 " fill="none" id="NGO-View beneficiaries" style="stroke: #A80036; stroke-width: 0.5136986301369864;"/><!--link NGO to Update/Delete beneficiary--><path d="M75.2784,308.5366 C81.9668,300.6719 92.4426,289.7173 103.7671,283.0479 C113.0363,277.5889 123.9236,273.4983 134.1652,270.4865 " fill="none" id="NGO-Update/Delete beneficiary" style="stroke: #A80036; stroke-width: 0.5136986301369864;"/><!--link NGO to Assign device--><path d="M75.3252,316.6572 C89.4807,314.1678 120.7115,308.6748 143.4514,304.6752 " fill="none" id="NGO-Assign device" style="stroke: #A80036; stroke-width: 0.5136986301369864;"/><!--link NGO to View donated devices--><path d="M75.3252,319.3017 C87.9128,321.5152 114.0031,326.1041 135.6185,329.906 " fill="none" id="NGO-View donated devices" style="stroke: #A80036; stroke-width: 0.5136986301369864;"/><!--link NGO to View device status--><path d="M75.3765,328.4137 C81.9735,336.7757 92.2685,348.1947 103.7671,354.9658 C114.1932,361.1055 126.7685,365.2027 138.1505,367.9125 " fill="none" id="NGO-View device status" style="stroke: #A80036; stroke-width: 0.5136986301369864;"/><!--link Beneficiary to Update device tracking status--><path d="M85.3813,437.0615 C96.1705,438.58 110.5295,440.6003 124.3526,442.5452 " fill="none" id="Beneficiary-Update device tracking status" style="stroke: #A80036; stroke-width: 0.5136986301369864;"/><!--
@startuml TechReliefUseCases
User <|- - Donor
User <|- - NGO
User <|- - Beneficiary

scale 800 width
scale 600 height

rectangle TechRelief {
  left to right direction

  together {
    User - - (Signup)
    User - - (Signin)
    User - - (Verify account email)
  }

  Donor - - (Donate device)
  Donor - - (Update account details)
  Donor - - (Update device details)
  Donor - - (Update device status)

  NGO - - (Register beneficiary)
  NGO - - (Update NGO details)
  NGO - - (View beneficiaries)
  NGO - - (Update/Delete beneficiary)
  NGO - - (Assign device) 
  NGO - - (View donated devices)
  NGO - - (View device status)
  

  Beneficiary - - (Update device tracking status)

}
@enduml

PlantUML version 1.2019.09(Mon Aug 26 18:19:51 CAT 2019)
(GPL source distribution)
Java Runtime: OpenJDK Runtime Environment
JVM: OpenJDK 64-Bit Server VM
Java Version: 11.0.5+10-LTS
Operating System: Windows 10
OS Version: 10.0
Default Encoding: Cp1252
Language: en
Country: ZA
--></g></svg>