<?xml version="1.0" encoding="UTF-8" standalone="no"?><svg xmlns="http://www.w3.org/2000/svg" xmlns:xlink="http://www.w3.org/1999/xlink" contentScriptType="application/ecmascript" contentStyleType="text/css" height="1569px" preserveAspectRatio="none" style="width:1022px;height:1569px;" version="1.1" viewBox="0 0 1022 1569" width="1022px" zoomAndPan="magnify"><defs><filter height="300%" id="f1a32g0a9dh4xw" width="300%" x="-1" y="-1"><feGaussianBlur result="blurOut" stdDeviation="2.0"/><feColorMatrix in="blurOut" result="blurOut2" type="matrix" values="0 0 0 0 0 0 0 0 0 0 0 0 0 0 0 0 0 0 .4 0"/><feOffset dx="4.0" dy="4.0" in="blurOut2" result="blurOut3"/><feBlend in="SourceGraphic" in2="blurOut3" mode="normal"/></filter></defs><g><!--class USER--><rect fill="#FEFECE" filter="url(#f1a32g0a9dh4xw)" height="200.1953" id="USER" style="stroke: #A80036; stroke-width: 1.5;" width="363" x="392" y="8"/><ellipse cx="552.25" cy="24" fill="#ADD1B2" rx="11" ry="11" style="stroke: #A80036; stroke-width: 1.0;"/><path d="M555.0156,19.875 Q555.1719,19.6563 555.3594,19.5469 Q555.5469,19.4375 555.7656,19.4375 Q556.1406,19.4375 556.375,19.7031 Q556.6094,19.9531 556.6094,20.5625 L556.6094,22.0156 Q556.6094,22.625 556.375,22.8906 Q556.1406,23.1563 555.7656,23.1563 Q555.4219,23.1563 555.2188,22.9531 Q555.0156,22.7656 554.9063,22.25 Q554.8594,21.8906 554.6719,21.7031 Q554.3438,21.3281 553.7344,21.1094 Q553.125,20.8906 552.5,20.8906 Q551.7344,20.8906 551.0938,21.2188 Q550.4688,21.5469 549.9688,22.2969 Q549.4844,23.0469 549.4844,24.0781 L549.4844,25.1719 Q549.4844,26.4063 550.375,27.2344 Q551.2656,28.0469 552.8594,28.0469 Q553.7969,28.0469 554.4531,27.7969 Q554.8438,27.6406 555.2656,27.2031 Q555.5313,26.9375 555.6719,26.8594 Q555.8281,26.7813 556.0313,26.7813 Q556.3594,26.7813 556.6094,27.0469 Q556.875,27.2969 556.875,27.6406 Q556.875,27.9844 556.5313,28.3906 Q556.0313,28.9688 555.2344,29.2969 Q554.1563,29.75 552.8594,29.75 Q551.3438,29.75 550.1406,29.125 Q549.1563,28.625 548.4688,27.5625 Q547.7813,26.4844 547.7813,25.2031 L547.7813,24.0469 Q547.7813,22.7188 548.3906,21.5781 Q549.0156,20.4219 550.1094,19.8125 Q551.2031,19.1875 552.4375,19.1875 Q553.1719,19.1875 553.8125,19.3594 Q554.4688,19.5156 555.0156,19.875 Z "/><text fill="#000000" font-family="sans-serif" font-size="12" lengthAdjust="spacingAndGlyphs" textLength="34" x="572.75" y="28.9102">USER</text><line style="stroke: #A80036; stroke-width: 1.5;" x1="393" x2="754" y1="40" y2="40"/><rect fill="none" height="6" style="stroke: #C82930; stroke-width: 1.0;" width="6" x="400" y="48"/><text fill="#000000" font-family="sans-serif" font-size="11" lengthAdjust="spacingAndGlyphs" textLength="111" x="412" y="55.4189">passwordHash : string</text><ellipse cx="403" cy="64.8359" fill="none" rx="3" ry="3" style="stroke: #038048; stroke-width: 1.0;"/><text fill="#000000" font-family="sans-serif" font-size="11" lengthAdjust="spacingAndGlyphs" textLength="44" x="412" y="69.2549">id : string</text><ellipse cx="403" cy="78.6719" fill="none" rx="3" ry="3" style="stroke: #038048; stroke-width: 1.0;"/><text fill="#000000" font-family="sans-serif" font-size="11" lengthAdjust="spacingAndGlyphs" textLength="60" x="412" y="83.0908">email : string</text><ellipse cx="403" cy="92.5078" fill="none" rx="3" ry="3" style="stroke: #038048; stroke-width: 1.0;"/><text fill="#000000" font-family="sans-serif" font-size="11" lengthAdjust="spacingAndGlyphs" textLength="109" x="412" y="96.9268">contactNumber : string</text><ellipse cx="403" cy="106.3438" fill="none" rx="3" ry="3" style="stroke: #038048; stroke-width: 1.0;"/><text fill="#000000" font-family="sans-serif" font-size="11" lengthAdjust="spacingAndGlyphs" textLength="82" x="412" y="110.7627">userType : string</text><ellipse cx="403" cy="120.1797" fill="none" rx="3" ry="3" style="stroke: #038048; stroke-width: 1.0;"/><text fill="#000000" font-family="sans-serif" font-size="11" lengthAdjust="spacingAndGlyphs" textLength="118" x="412" y="124.5986">physicalAddress : string</text><line style="stroke: #A80036; stroke-width: 1.5;" x1="393" x2="754" y1="131.0156" y2="131.0156"/><ellipse cx="403" cy="142.0156" fill="#84BE84" rx="3" ry="3" style="stroke: #038048; stroke-width: 1.0;"/><text fill="#000000" font-family="sans-serif" font-size="11" lengthAdjust="spacingAndGlyphs" textLength="149" x="412" y="146.4346">signup(email, password) : void</text><ellipse cx="403" cy="155.8516" fill="#84BE84" rx="3" ry="3" style="stroke: #038048; stroke-width: 1.0;"/><text fill="#000000" font-family="sans-serif" font-size="11" lengthAdjust="spacingAndGlyphs" textLength="337" x="412" y="160.2705">completeProfile(firstName, lastName, contactNumber, userType) : void</text><ellipse cx="403" cy="169.6875" fill="#84BE84" rx="3" ry="3" style="stroke: #038048; stroke-width: 1.0;"/><text fill="#000000" font-family="sans-serif" font-size="11" lengthAdjust="spacingAndGlyphs" textLength="145" x="412" y="174.1064">signin(email, password) : void</text><ellipse cx="403" cy="183.5234" fill="#84BE84" rx="3" ry="3" style="stroke: #038048; stroke-width: 1.0;"/><text fill="#000000" font-family="sans-serif" font-size="11" lengthAdjust="spacingAndGlyphs" textLength="149" x="412" y="187.9424">recoverPassword(email) : void</text><ellipse cx="403" cy="197.3594" fill="#84BE84" rx="3" ry="3" style="stroke: #038048; stroke-width: 1.0;"/><text fill="#000000" font-family="sans-serif" font-size="11" lengthAdjust="spacingAndGlyphs" textLength="89" x="412" y="201.7783">verifyEmail() : void</text><!--class DONOR--><rect fill="#FEFECE" filter="url(#f1a32g0a9dh4xw)" height="144.8516" id="DONOR" style="stroke: #A80036; stroke-width: 1.5;" width="309" x="6" y="472"/><ellipse cx="133.75" cy="488" fill="#ADD1B2" rx="11" ry="11" style="stroke: #A80036; stroke-width: 1.0;"/><path d="M136.5156,483.875 Q136.6719,483.6563 136.8594,483.5469 Q137.0469,483.4375 137.2656,483.4375 Q137.6406,483.4375 137.875,483.7031 Q138.1094,483.9531 138.1094,484.5625 L138.1094,486.0156 Q138.1094,486.625 137.875,486.8906 Q137.6406,487.1563 137.2656,487.1563 Q136.9219,487.1563 136.7188,486.9531 Q136.5156,486.7656 136.4063,486.25 Q136.3594,485.8906 136.1719,485.7031 Q135.8438,485.3281 135.2344,485.1094 Q134.625,484.8906 134,484.8906 Q133.2344,484.8906 132.5938,485.2188 Q131.9688,485.5469 131.4688,486.2969 Q130.9844,487.0469 130.9844,488.0781 L130.9844,489.1719 Q130.9844,490.4063 131.875,491.2344 Q132.7656,492.0469 134.3594,492.0469 Q135.2969,492.0469 135.9531,491.7969 Q136.3438,491.6406 136.7656,491.2031 Q137.0313,490.9375 137.1719,490.8594 Q137.3281,490.7813 137.5313,490.7813 Q137.8594,490.7813 138.1094,491.0469 Q138.375,491.2969 138.375,491.6406 Q138.375,491.9844 138.0313,492.3906 Q137.5313,492.9688 136.7344,493.2969 Q135.6563,493.75 134.3594,493.75 Q132.8438,493.75 131.6406,493.125 Q130.6563,492.625 129.9688,491.5625 Q129.2813,490.4844 129.2813,489.2031 L129.2813,488.0469 Q129.2813,486.7188 129.8906,485.5781 Q130.5156,484.4219 131.6094,483.8125 Q132.7031,483.1875 133.9375,483.1875 Q134.6719,483.1875 135.3125,483.3594 Q135.9688,483.5156 136.5156,483.875 Z "/><text fill="#000000" font-family="sans-serif" font-size="12" lengthAdjust="spacingAndGlyphs" textLength="45" x="154.25" y="492.9102">DONOR</text><line style="stroke: #A80036; stroke-width: 1.5;" x1="7" x2="314" y1="504" y2="504"/><ellipse cx="17" cy="515" fill="none" rx="3" ry="3" style="stroke: #038048; stroke-width: 1.0;"/><text fill="#000000" font-family="sans-serif" font-size="11" lengthAdjust="spacingAndGlyphs" textLength="82" x="26" y="519.4189">firstName : string</text><ellipse cx="17" cy="528.8359" fill="none" rx="3" ry="3" style="stroke: #038048; stroke-width: 1.0;"/><text fill="#000000" font-family="sans-serif" font-size="11" lengthAdjust="spacingAndGlyphs" textLength="80" x="26" y="533.2549">lastName : string</text><ellipse cx="17" cy="542.6719" fill="none" rx="3" ry="3" style="stroke: #038048; stroke-width: 1.0;"/><text fill="#000000" font-family="sans-serif" font-size="11" lengthAdjust="spacingAndGlyphs" textLength="169" x="26" y="547.0908">numberOfDonatedDevices: number</text><line style="stroke: #A80036; stroke-width: 1.5;" x1="7" x2="314" y1="553.5078" y2="553.5078"/><ellipse cx="17" cy="564.5078" fill="#84BE84" rx="3" ry="3" style="stroke: #038048; stroke-width: 1.0;"/><text fill="#000000" font-family="sans-serif" font-size="11" lengthAdjust="spacingAndGlyphs" textLength="251" x="26" y="568.9268">updateAccountDetails(userID, accountDetails) : void</text><ellipse cx="17" cy="578.3438" fill="#84BE84" rx="3" ry="3" style="stroke: #038048; stroke-width: 1.0;"/><text fill="#000000" font-family="sans-serif" font-size="11" lengthAdjust="spacingAndGlyphs" textLength="204" x="26" y="582.7627">donateDevice(userID, deviceDetails) : void</text><ellipse cx="17" cy="592.1797" fill="#84BE84" rx="3" ry="3" style="stroke: #038048; stroke-width: 1.0;"/><text fill="#000000" font-family="sans-serif" font-size="11" lengthAdjust="spacingAndGlyphs" textLength="282" x="26" y="596.5986">updateDeviceStatus(userID, deviceID, deviceDetails) : void</text><ellipse cx="17" cy="606.0156" fill="#84BE84" rx="3" ry="3" style="stroke: #038048; stroke-width: 1.0;"/><text fill="#000000" font-family="sans-serif" font-size="11" lengthAdjust="spacingAndGlyphs" textLength="283" x="26" y="610.4346">updateDeviceDetails(userID, deviceID, deviceDetails) : void</text><!--class NGO--><rect fill="#FEFECE" filter="url(#f1a32g0a9dh4xw)" height="172.5234" id="NGO" style="stroke: #A80036; stroke-width: 1.5;" width="274" x="436.5" y="269"/><ellipse cx="555.75" cy="285" fill="#ADD1B2" rx="11" ry="11" style="stroke: #A80036; stroke-width: 1.0;"/><path d="M558.5156,280.875 Q558.6719,280.6563 558.8594,280.5469 Q559.0469,280.4375 559.2656,280.4375 Q559.6406,280.4375 559.875,280.7031 Q560.1094,280.9531 560.1094,281.5625 L560.1094,283.0156 Q560.1094,283.625 559.875,283.8906 Q559.6406,284.1563 559.2656,284.1563 Q558.9219,284.1563 558.7188,283.9531 Q558.5156,283.7656 558.4063,283.25 Q558.3594,282.8906 558.1719,282.7031 Q557.8438,282.3281 557.2344,282.1094 Q556.625,281.8906 556,281.8906 Q555.2344,281.8906 554.5938,282.2188 Q553.9688,282.5469 553.4688,283.2969 Q552.9844,284.0469 552.9844,285.0781 L552.9844,286.1719 Q552.9844,287.4063 553.875,288.2344 Q554.7656,289.0469 556.3594,289.0469 Q557.2969,289.0469 557.9531,288.7969 Q558.3438,288.6406 558.7656,288.2031 Q559.0313,287.9375 559.1719,287.8594 Q559.3281,287.7813 559.5313,287.7813 Q559.8594,287.7813 560.1094,288.0469 Q560.375,288.2969 560.375,288.6406 Q560.375,288.9844 560.0313,289.3906 Q559.5313,289.9688 558.7344,290.2969 Q557.6563,290.75 556.3594,290.75 Q554.8438,290.75 553.6406,290.125 Q552.6563,289.625 551.9688,288.5625 Q551.2813,287.4844 551.2813,286.2031 L551.2813,285.0469 Q551.2813,283.7188 551.8906,282.5781 Q552.5156,281.4219 553.6094,280.8125 Q554.7031,280.1875 555.9375,280.1875 Q556.6719,280.1875 557.3125,280.3594 Q557.9688,280.5156 558.5156,280.875 Z "/><text fill="#000000" font-family="sans-serif" font-size="12" lengthAdjust="spacingAndGlyphs" textLength="27" x="576.25" y="289.9102">NGO</text><line style="stroke: #A80036; stroke-width: 1.5;" x1="437.5" x2="709.5" y1="301" y2="301"/><ellipse cx="447.5" cy="312" fill="none" rx="3" ry="3" style="stroke: #038048; stroke-width: 1.0;"/><text fill="#000000" font-family="sans-serif" font-size="11" lengthAdjust="spacingAndGlyphs" textLength="108" x="456.5" y="316.4189">institutionName : string</text><ellipse cx="447.5" cy="325.8359" fill="none" rx="3" ry="3" style="stroke: #038048; stroke-width: 1.0;"/><text fill="#000000" font-family="sans-serif" font-size="11" lengthAdjust="spacingAndGlyphs" textLength="156" x="456.5" y="330.2549">numberOfBeneficiaries : number</text><ellipse cx="447.5" cy="339.6719" fill="none" rx="3" ry="3" style="stroke: #038048; stroke-width: 1.0;"/><text fill="#000000" font-family="sans-serif" font-size="11" lengthAdjust="spacingAndGlyphs" textLength="149" x="456.5" y="344.0908">totalDevicesReceived : number</text><ellipse cx="447.5" cy="353.5078" fill="none" rx="3" ry="3" style="stroke: #038048; stroke-width: 1.0;"/><text fill="#000000" font-family="sans-serif" font-size="11" lengthAdjust="spacingAndGlyphs" textLength="150" x="456.5" y="357.9268">totalDevicesAssigned : number</text><ellipse cx="447.5" cy="367.3438" fill="none" rx="3" ry="3" style="stroke: #038048; stroke-width: 1.0;"/><text fill="#000000" font-family="sans-serif" font-size="11" lengthAdjust="spacingAndGlyphs" textLength="150" x="456.5" y="371.7627">totalDefectiveDevices : number</text><ellipse cx="447.5" cy="381.1797" fill="none" rx="3" ry="3" style="stroke: #038048; stroke-width: 1.0;"/><text fill="#000000" font-family="sans-serif" font-size="11" lengthAdjust="spacingAndGlyphs" textLength="146" x="456.5" y="385.5986">totalRevokedDevices : number</text><line style="stroke: #A80036; stroke-width: 1.5;" x1="437.5" x2="709.5" y1="392.0156" y2="392.0156"/><ellipse cx="447.5" cy="403.0156" fill="#84BE84" rx="3" ry="3" style="stroke: #038048; stroke-width: 1.0;"/><text fill="#000000" font-family="sans-serif" font-size="11" lengthAdjust="spacingAndGlyphs" textLength="248" x="456.5" y="407.4346">registerBeneficiary(ngoID, beneficiaryDetails) : void</text><ellipse cx="447.5" cy="416.8516" fill="#84BE84" rx="3" ry="3" style="stroke: #038048; stroke-width: 1.0;"/><text fill="#000000" font-family="sans-serif" font-size="11" lengthAdjust="spacingAndGlyphs" textLength="208" x="456.5" y="421.2705">updateNGODetails(ngoID, ngoDetails) : void</text><ellipse cx="447.5" cy="430.6875" fill="#84BE84" rx="3" ry="3" style="stroke: #038048; stroke-width: 1.0;"/><text fill="#000000" font-family="sans-serif" font-size="11" lengthAdjust="spacingAndGlyphs" textLength="151" x="456.5" y="435.1064">viewBeneficiaries(ngoID) : void</text><!--class BENEFICIARY--><rect fill="#FEFECE" filter="url(#f1a32g0a9dh4xw)" height="103.3438" id="BENEFICIARY" style="stroke: #A80036; stroke-width: 1.5;" width="201" x="548" y="1005"/><ellipse cx="605.25" cy="1021" fill="#ADD1B2" rx="11" ry="11" style="stroke: #A80036; stroke-width: 1.0;"/><path d="M608.0156,1016.875 Q608.1719,1016.6563 608.3594,1016.5469 Q608.5469,1016.4375 608.7656,1016.4375 Q609.1406,1016.4375 609.375,1016.7031 Q609.6094,1016.9531 609.6094,1017.5625 L609.6094,1019.0156 Q609.6094,1019.625 609.375,1019.8906 Q609.1406,1020.1563 608.7656,1020.1563 Q608.4219,1020.1563 608.2188,1019.9531 Q608.0156,1019.7656 607.9063,1019.25 Q607.8594,1018.8906 607.6719,1018.7031 Q607.3438,1018.3281 606.7344,1018.1094 Q606.125,1017.8906 605.5,1017.8906 Q604.7344,1017.8906 604.0938,1018.2188 Q603.4688,1018.5469 602.9688,1019.2969 Q602.4844,1020.0469 602.4844,1021.0781 L602.4844,1022.1719 Q602.4844,1023.4063 603.375,1024.2344 Q604.2656,1025.0469 605.8594,1025.0469 Q606.7969,1025.0469 607.4531,1024.7969 Q607.8438,1024.6406 608.2656,1024.2031 Q608.5313,1023.9375 608.6719,1023.8594 Q608.8281,1023.7813 609.0313,1023.7813 Q609.3594,1023.7813 609.6094,1024.0469 Q609.875,1024.2969 609.875,1024.6406 Q609.875,1024.9844 609.5313,1025.3906 Q609.0313,1025.9688 608.2344,1026.2969 Q607.1563,1026.75 605.8594,1026.75 Q604.3438,1026.75 603.1406,1026.125 Q602.1563,1025.625 601.4688,1024.5625 Q600.7813,1023.4844 600.7813,1022.2031 L600.7813,1021.0469 Q600.7813,1019.7188 601.3906,1018.5781 Q602.0156,1017.4219 603.1094,1016.8125 Q604.2031,1016.1875 605.4375,1016.1875 Q606.1719,1016.1875 606.8125,1016.3594 Q607.4688,1016.5156 608.0156,1016.875 Z "/><text fill="#000000" font-family="sans-serif" font-size="12" lengthAdjust="spacingAndGlyphs" textLength="78" x="625.75" y="1025.9102">BENEFICIARY</text><line style="stroke: #A80036; stroke-width: 1.5;" x1="549" x2="748" y1="1037" y2="1037"/><ellipse cx="559" cy="1048" fill="none" rx="3" ry="3" style="stroke: #038048; stroke-width: 1.0;"/><text fill="#000000" font-family="sans-serif" font-size="11" lengthAdjust="spacingAndGlyphs" textLength="98" x="568" y="1052.4189">hasDevice : boolean</text><ellipse cx="559" cy="1061.8359" fill="none" rx="3" ry="3" style="stroke: #038048; stroke-width: 1.0;"/><text fill="#000000" font-family="sans-serif" font-size="11" lengthAdjust="spacingAndGlyphs" textLength="63" x="568" y="1066.2549">ngoID : string</text><ellipse cx="559" cy="1075.6719" fill="none" rx="3" ry="3" style="stroke: #038048; stroke-width: 1.0;"/><text fill="#000000" font-family="sans-serif" font-size="11" lengthAdjust="spacingAndGlyphs" textLength="63" x="568" y="1080.0908">age : number</text><line style="stroke: #A80036; stroke-width: 1.5;" x1="549" x2="748" y1="1086.5078" y2="1086.5078"/><ellipse cx="559" cy="1097.5078" fill="#84BE84" rx="3" ry="3" style="stroke: #038048; stroke-width: 1.0;"/><text fill="#000000" font-family="sans-serif" font-size="11" lengthAdjust="spacingAndGlyphs" textLength="175" x="568" y="1101.9268">updateDeviceStatus(deviceID) : void</text><!--class DEVICE--><rect fill="#FEFECE" filter="url(#f1a32g0a9dh4xw)" height="186.3594" id="DEVICE" style="stroke: #A80036; stroke-width: 1.5;" width="135" x="271" y="1372"/><ellipse cx="312.55" cy="1388" fill="#ADD1B2" rx="11" ry="11" style="stroke: #A80036; stroke-width: 1.0;"/><path d="M315.3156,1383.875 Q315.4719,1383.6563 315.6594,1383.5469 Q315.8469,1383.4375 316.0656,1383.4375 Q316.4406,1383.4375 316.675,1383.7031 Q316.9094,1383.9531 316.9094,1384.5625 L316.9094,1386.0156 Q316.9094,1386.625 316.675,1386.8906 Q316.4406,1387.1563 316.0656,1387.1563 Q315.7219,1387.1563 315.5188,1386.9531 Q315.3156,1386.7656 315.2063,1386.25 Q315.1594,1385.8906 314.9719,1385.7031 Q314.6438,1385.3281 314.0344,1385.1094 Q313.425,1384.8906 312.8,1384.8906 Q312.0344,1384.8906 311.3938,1385.2188 Q310.7688,1385.5469 310.2688,1386.2969 Q309.7844,1387.0469 309.7844,1388.0781 L309.7844,1389.1719 Q309.7844,1390.4063 310.675,1391.2344 Q311.5656,1392.0469 313.1594,1392.0469 Q314.0969,1392.0469 314.7531,1391.7969 Q315.1438,1391.6406 315.5656,1391.2031 Q315.8313,1390.9375 315.9719,1390.8594 Q316.1281,1390.7813 316.3313,1390.7813 Q316.6594,1390.7813 316.9094,1391.0469 Q317.175,1391.2969 317.175,1391.6406 Q317.175,1391.9844 316.8313,1392.3906 Q316.3313,1392.9688 315.5344,1393.2969 Q314.4563,1393.75 313.1594,1393.75 Q311.6438,1393.75 310.4406,1393.125 Q309.4563,1392.625 308.7688,1391.5625 Q308.0813,1390.4844 308.0813,1389.2031 L308.0813,1388.0469 Q308.0813,1386.7188 308.6906,1385.5781 Q309.3156,1384.4219 310.4094,1383.8125 Q311.5031,1383.1875 312.7375,1383.1875 Q313.4719,1383.1875 314.1125,1383.3594 Q314.7688,1383.5156 315.3156,1383.875 Z "/><text fill="#000000" font-family="sans-serif" font-size="12" lengthAdjust="spacingAndGlyphs" textLength="44" x="332.45" y="1392.9102">DEVICE</text><line style="stroke: #A80036; stroke-width: 1.5;" x1="272" x2="405" y1="1404" y2="1404"/><ellipse cx="282" cy="1415" fill="none" rx="3" ry="3" style="stroke: #038048; stroke-width: 1.0;"/><text fill="#000000" font-family="sans-serif" font-size="11" lengthAdjust="spacingAndGlyphs" textLength="61" x="291" y="1419.4189">make : string</text><ellipse cx="282" cy="1428.8359" fill="none" rx="3" ry="3" style="stroke: #038048; stroke-width: 1.0;"/><text fill="#000000" font-family="sans-serif" font-size="11" lengthAdjust="spacingAndGlyphs" textLength="64" x="291" y="1433.2549">model : string</text><ellipse cx="282" cy="1442.6719" fill="none" rx="3" ry="3" style="stroke: #038048; stroke-width: 1.0;"/><text fill="#000000" font-family="sans-serif" font-size="11" lengthAdjust="spacingAndGlyphs" textLength="57" x="291" y="1447.0908">type : string</text><ellipse cx="282" cy="1456.5078" fill="none" rx="3" ry="3" style="stroke: #038048; stroke-width: 1.0;"/><text fill="#000000" font-family="sans-serif" font-size="11" lengthAdjust="spacingAndGlyphs" textLength="97" x="291" y="1460.9268">donatedDate : string</text><ellipse cx="282" cy="1470.3438" fill="none" rx="3" ry="3" style="stroke: #038048; stroke-width: 1.0;"/><text fill="#000000" font-family="sans-serif" font-size="11" lengthAdjust="spacingAndGlyphs" textLength="109" x="291" y="1474.7627">deviceImageUrl : string</text><ellipse cx="282" cy="1484.1797" fill="none" rx="3" ry="3" style="stroke: #038048; stroke-width: 1.0;"/><text fill="#000000" font-family="sans-serif" font-size="11" lengthAdjust="spacingAndGlyphs" textLength="89" x="291" y="1488.5986">description : string</text><ellipse cx="282" cy="1498.0156" fill="none" rx="3" ry="3" style="stroke: #038048; stroke-width: 1.0;"/><text fill="#000000" font-family="sans-serif" font-size="11" lengthAdjust="spacingAndGlyphs" textLength="73" x="291" y="1502.4346">donorID : string</text><ellipse cx="282" cy="1511.8516" fill="none" rx="3" ry="3" style="stroke: #038048; stroke-width: 1.0;"/><text fill="#000000" font-family="sans-serif" font-size="11" lengthAdjust="spacingAndGlyphs" textLength="63" x="291" y="1516.2705">ngoID : string</text><ellipse cx="282" cy="1525.6875" fill="none" rx="3" ry="3" style="stroke: #038048; stroke-width: 1.0;"/><text fill="#000000" font-family="sans-serif" font-size="11" lengthAdjust="spacingAndGlyphs" textLength="89" x="291" y="1530.1064">received : boolean</text><ellipse cx="282" cy="1539.5234" fill="none" rx="3" ry="3" style="stroke: #038048; stroke-width: 1.0;"/><text fill="#000000" font-family="sans-serif" font-size="11" lengthAdjust="spacingAndGlyphs" textLength="86" x="291" y="1543.9424">revoked : boolean</text><line style="stroke: #A80036; stroke-width: 1.5;" x1="272" x2="405" y1="1550.3594" y2="1550.3594"/><!--reverse link USER to NGO--><path d="M573.5,228.61 C573.5,242.17 573.5,255.79 573.5,268.8 " fill="none" id="USER&lt;-NGO" style="stroke: #A80036; stroke-width: 1.0;"/><polygon fill="none" points="566.5,228.15,573.5,208.15,580.5,228.15,566.5,228.15" style="stroke: #A80036; stroke-width: 1.0;"/><!--reverse link USER to BENEFICIARY--><path d="M774.487,143.07 C889.251,175.32 1010.5,237.16 1010.5,354.5 C1010.5,354.5 1010.5,354.5 1010.5,889 C1010.5,1004.524 856.45,1040.18 749.337,1051.009 " fill="none" id="USER&lt;-BENEFICIARY" style="stroke: #A80036; stroke-width: 1.0;"/><polygon fill="none" points="772.539,149.79,755.031,137.86,776.161,136.27,772.539,149.79" style="stroke: #A80036; stroke-width: 1.0;"/><!--reverse link USER to DONOR--><path d="M462.73,222.92 C447.826,238.37 432.764,254.05 418.5,269 C353.145,337.49 279.212,416.29 227.296,471.84 " fill="none" id="USER&lt;-DONOR" style="stroke: #A80036; stroke-width: 1.0;"/><polygon fill="none" points="458.011,217.73,476.94,208.21,468.082,227.46,458.011,217.73" style="stroke: #A80036; stroke-width: 1.0;"/><!--reverse link NGO to BENEFICIARY--><path d="M611.891,454.42 C630.339,510 648.5,581.384 648.5,647 C648.5,647 648.5,647 648.5,889 C648.5,927.879 648.5,971.864 648.5,1004.859 " fill="none" id="NGO&lt;-BENEFICIARY" style="stroke: #A80036; stroke-width: 1.0;"/><polygon fill="#A80036" points="607.708,442.09,605.845,449.0563,611.5589,453.4553,613.4219,446.489,607.708,442.09" style="stroke: #A80036; stroke-width: 1.0;"/><text fill="#000000" font-family="sans-serif" font-size="13" lengthAdjust="spacingAndGlyphs" textLength="63" x="649.5" y="773.6709">belongs_to</text><path d="M718.5,745 L718.5,787 L978.5,787 L978.5,755 L968.5,745 L718.5,745 " fill="#20B2AA" filter="url(#f1a32g0a9dh4xw)" style="stroke: #A80036; stroke-width: 1.0;"/><path d="M968.5,745 L968.5,755 L978.5,755 L968.5,745 " fill="#20B2AA" style="stroke: #A80036; stroke-width: 1.0;"/><text fill="#000000" font-family="sans-serif" font-size="13" lengthAdjust="spacingAndGlyphs" textLength="227" x="724.5" y="763.4951">If a NGO is deleted then the beneficiary</text><text fill="#000000" font-family="sans-serif" font-size="13" lengthAdjust="spacingAndGlyphs" textLength="235" x="728.5" y="779.8467">shoould also be deleted from the system</text><!--link DONOR to DEVICE--><path d="M194.261,617.275 C200.713,636.566 205.5,657.715 205.5,678 C205.5,678 205.5,678 205.5,1311 C205.5,1353.783 235.488,1390.433 266.984,1417.128 " fill="none" id="DONOR-&gt;DEVICE" style="stroke: #A80036; stroke-width: 1.0;"/><polygon fill="#A80036" points="270.831,1420.334,266.4797,1411.4985,266.9906,1417.1322,261.3569,1417.6431,270.831,1420.334" style="stroke: #A80036; stroke-width: 1.0;"/><text fill="#000000" font-family="sans-serif" font-size="13" lengthAdjust="spacingAndGlyphs" textLength="46" x="206.5" y="952.4951">donates</text><text fill="#000000" font-family="sans-serif" font-size="13" lengthAdjust="spacingAndGlyphs" textLength="20" x="176.4515" y="638.2396">0..*</text><text fill="#000000" font-family="sans-serif" font-size="13" lengthAdjust="spacingAndGlyphs" textLength="20" x="242.8214" y="1412.3975">1..*</text><!--link NGO to DEVICE--><path d="M444.0556,450.3381 C444.0556,450.3381 338.5,570.046 338.5,647 C338.5,647 338.5,647 338.5,1311 C338.5,1326.356 338.5,1342.58 338.5,1358.496 " fill="none" id="NGO-DEVICE" style="stroke: #A80036; stroke-width: 1.0;"/><polygon fill="#A80036" points="338.5,1371.767,342.5,1362.767,338.5,1366.767,334.5,1362.767,338.5,1371.767" style="stroke: #A80036; stroke-width: 1.0;"/><line style="stroke: #A80036; stroke-width: 1.0;" x1="338.5" x2="338.5" y1="1366.767" y2="1358.7665"/><polygon fill="#FFFFFF" points="452.902,442.23,445.7761,443.3353,444.0556,450.3381,451.1815,449.2328,452.902,442.23" style="stroke: #A80036; stroke-width: 1.0;"/><text fill="#000000" font-family="sans-serif" font-size="13" lengthAdjust="spacingAndGlyphs" textLength="45" x="339.5" y="952.6709">assigns</text><path d="M390.5,924 L390.5,966 L616.5,966 L616.5,934 L606.5,924 L390.5,924 " fill="#20B2AA" filter="url(#f1a32g0a9dh4xw)" style="stroke: #A80036; stroke-width: 1.0;"/><path d="M606.5,924 L606.5,934 L616.5,934 L606.5,924 " fill="#20B2AA" style="stroke: #A80036; stroke-width: 1.0;"/><text fill="#000000" font-family="sans-serif" font-size="13" lengthAdjust="spacingAndGlyphs" textLength="201" x="396.5" y="942.4951">If a NGO is deleted then the device</text><text fill="#000000" font-family="sans-serif" font-size="13" lengthAdjust="spacingAndGlyphs" textLength="161" x="400.5" y="958.8467">should go back to the donor</text><text fill="#000000" font-family="sans-serif" font-size="13" lengthAdjust="spacingAndGlyphs" textLength="20" x="422.9031" y="463.0096">0..*</text><text fill="#000000" font-family="sans-serif" font-size="13" lengthAdjust="spacingAndGlyphs" textLength="20" x="317.7031" y="1361.1948">1..*</text><!--link BENEFICIARY to DEVICE--><path d="M567.246,1108.051 C550.32,1124.747 537.5,1145.236 537.5,1169 C537.5,1169 537.5,1169 537.5,1311 C537.5,1377.019 467.814,1418.481 410.916,1441.331 " fill="none" id="BENEFICIARY-&gt;DEVICE" style="stroke: #A80036; stroke-width: 1.0;"/><polygon fill="#A80036" points="406.15,1443.214,415.9902,1443.6272,410.8002,1441.3768,413.0506,1436.1868,406.15,1443.214" style="stroke: #A80036; stroke-width: 1.0;"/><text fill="#000000" font-family="sans-serif" font-size="13" lengthAdjust="spacingAndGlyphs" textLength="47" x="538.5" y="1245.4951">recieves</text><text fill="#000000" font-family="sans-serif" font-size="13" lengthAdjust="spacingAndGlyphs" textLength="20" x="534.4134" y="1129.921">0..*</text><text fill="#000000" font-family="sans-serif" font-size="13" lengthAdjust="spacingAndGlyphs" textLength="20" x="414.1577" y="1437.637">1..*</text><!--
@startuml TechReliefClassDiagram

class USER {
 -passwordHash : string
 +id : string
 +email : string 
 +contactNumber : string
 +userType : string
 +physicalAddress : string
 +signup(email, password) : void
 +completeProfile(firstName, lastName, contactNumber, userType) : void
 +signin(email, password) : void
 +recoverPassword(email) : void
 +verifyEmail() : void
}

class DONOR {
   +firstName : string
   +lastName : string
   +numberOfDonatedDevices: number
   +updateAccountDetails(userID, accountDetails) : void
   +donateDevice(userID, deviceDetails) : void
   +updateDeviceStatus(userID, deviceID, deviceDetails) : void
   +updateDeviceDetails(userID, deviceID, deviceDetails) : void
}

class NGO {
  +institutionName : string
  +numberOfBeneficiaries : number
  +totalDevicesReceived : number
  +totalDevicesAssigned : number
  +totalDefectiveDevices : number
  +totalRevokedDevices : number
  +registerBeneficiary(ngoID, beneficiaryDetails) : void
  +updateNGODetails(ngoID, ngoDetails) : void
  +viewBeneficiaries(ngoID) : void
}


class BENEFICIARY {
  +hasDevice : boolean
  +ngoID : string
  +age : number
  +updateDeviceStatus(deviceID) : void
}

class DEVICE {
  +make : string
  +model : string
  +type : string
  +donatedDate : string
  +deviceImageUrl : string
  +description : string
  +donorID : string
  +ngoID : string
  +received : boolean
  +revoked : boolean
}


USER ^- - NGO
USER ^- - BENEFICIARY
USER ^- - DONOR


NGO *- - - - - - BENEFICIARY : belongs_to
note right on link #LightSeaGreen
	If a NGO is deleted then the beneficiary 
  shoould also be deleted from the system
end note
DONOR "0..*" - - - - -> "1..*" DEVICE: donates
NGO "0..*" o- - - -> "1..*" DEVICE: assigns
note right on link #LightSeaGreen
	If a NGO is deleted then the device 
  should go back to the donor
end note

BENEFICIARY "0..*" - - - - -> "1..*" DEVICE: recieves

@enduml

PlantUML version 1.2019.09(Mon Aug 26 18:19:51 SAST 2019)
(GPL source distribution)
Java Runtime: OpenJDK Runtime Environment
JVM: OpenJDK 64-Bit Server VM
Java Version: 13.0.1+9
Operating System: Windows 10
OS Version: 10.0
Default Encoding: Cp1252
Language: en
Country: ZA
--></g></svg>