<?xml version="1.0" encoding="UTF-8" standalone="no"?><svg xmlns="http://www.w3.org/2000/svg" xmlns:xlink="http://www.w3.org/1999/xlink" contentScriptType="application/ecmascript" contentStyleType="text/css" height="911px" preserveAspectRatio="none" style="width:539px;height:911px;" version="1.1" viewBox="0 0 539 911" width="539px" zoomAndPan="magnify"><defs><filter height="300%" id="fgeyxor8gyvuz" width="300%" x="-1" y="-1"><feGaussianBlur result="blurOut" stdDeviation="2.0"/><feColorMatrix in="blurOut" result="blurOut2" type="matrix" values="0 0 0 0 0 0 0 0 0 0 0 0 0 0 0 0 0 0 .4 0"/><feOffset dx="4.0" dy="4.0" in="blurOut2" result="blurOut3"/><feBlend in="SourceGraphic" in2="blurOut3" mode="normal"/></filter></defs><g><!--class USER--><rect fill="#FEFECE" filter="url(#fgeyxor8gyvuz)" height="200.1953" id="USER" style="stroke: #A80036; stroke-width: 1.5;" width="334" x="149" y="8"/><ellipse cx="294.75" cy="24" fill="#ADD1B2" rx="11" ry="11" style="stroke: #A80036; stroke-width: 1.0;"/><path d="M297.5156,19.875 Q297.6719,19.6563 297.8594,19.5469 Q298.0469,19.4375 298.2656,19.4375 Q298.6406,19.4375 298.875,19.7031 Q299.1094,19.9531 299.1094,20.5625 L299.1094,22.0156 Q299.1094,22.625 298.875,22.8906 Q298.6406,23.1563 298.2656,23.1563 Q297.9219,23.1563 297.7188,22.9531 Q297.5156,22.7656 297.4063,22.25 Q297.3594,21.8906 297.1719,21.7031 Q296.8438,21.3281 296.2344,21.1094 Q295.625,20.8906 295,20.8906 Q294.2344,20.8906 293.5938,21.2188 Q292.9688,21.5469 292.4688,22.2969 Q291.9844,23.0469 291.9844,24.0781 L291.9844,25.1719 Q291.9844,26.4063 292.875,27.2344 Q293.7656,28.0469 295.3594,28.0469 Q296.2969,28.0469 296.9531,27.7969 Q297.3438,27.6406 297.7656,27.2031 Q298.0313,26.9375 298.1719,26.8594 Q298.3281,26.7813 298.5313,26.7813 Q298.8594,26.7813 299.1094,27.0469 Q299.375,27.2969 299.375,27.6406 Q299.375,27.9844 299.0313,28.3906 Q298.5313,28.9688 297.7344,29.2969 Q296.6563,29.75 295.3594,29.75 Q293.8438,29.75 292.6406,29.125 Q291.6563,28.625 290.9688,27.5625 Q290.2813,26.4844 290.2813,25.2031 L290.2813,24.0469 Q290.2813,22.7188 290.8906,21.5781 Q291.5156,20.4219 292.6094,19.8125 Q293.7031,19.1875 294.9375,19.1875 Q295.6719,19.1875 296.3125,19.3594 Q296.9688,19.5156 297.5156,19.875 Z "/><text fill="#000000" font-family="sans-serif" font-size="12" lengthAdjust="spacingAndGlyphs" textLength="34" x="315.25" y="28.9102">USER</text><line style="stroke: #A80036; stroke-width: 1.5;" x1="150" x2="482" y1="40" y2="40"/><rect fill="none" height="6" style="stroke: #C82930; stroke-width: 1.0;" width="6" x="157" y="48"/><text fill="#000000" font-family="sans-serif" font-size="11" lengthAdjust="spacingAndGlyphs" textLength="75" x="169" y="55.4189">passwordHash</text><ellipse cx="160" cy="64.8359" fill="none" rx="3" ry="3" style="stroke: #038048; stroke-width: 1.0;"/><text fill="#000000" font-family="sans-serif" font-size="11" lengthAdjust="spacingAndGlyphs" textLength="8" x="169" y="69.2549">id</text><ellipse cx="160" cy="78.6719" fill="none" rx="3" ry="3" style="stroke: #038048; stroke-width: 1.0;"/><text fill="#000000" font-family="sans-serif" font-size="11" lengthAdjust="spacingAndGlyphs" textLength="24" x="169" y="83.0908">email</text><ellipse cx="160" cy="92.5078" fill="none" rx="3" ry="3" style="stroke: #038048; stroke-width: 1.0;"/><text fill="#000000" font-family="sans-serif" font-size="11" lengthAdjust="spacingAndGlyphs" textLength="73" x="169" y="96.9268">contactNumber</text><ellipse cx="160" cy="106.3438" fill="none" rx="3" ry="3" style="stroke: #038048; stroke-width: 1.0;"/><text fill="#000000" font-family="sans-serif" font-size="11" lengthAdjust="spacingAndGlyphs" textLength="46" x="169" y="110.7627">userType</text><ellipse cx="160" cy="120.1797" fill="none" rx="3" ry="3" style="stroke: #038048; stroke-width: 1.0;"/><text fill="#000000" font-family="sans-serif" font-size="11" lengthAdjust="spacingAndGlyphs" textLength="82" x="169" y="124.5986">physicalAddress</text><line style="stroke: #A80036; stroke-width: 1.5;" x1="150" x2="482" y1="131.0156" y2="131.0156"/><ellipse cx="160" cy="142.0156" fill="#84BE84" rx="3" ry="3" style="stroke: #038048; stroke-width: 1.0;"/><text fill="#000000" font-family="sans-serif" font-size="11" lengthAdjust="spacingAndGlyphs" textLength="120" x="169" y="146.4346">signup(email, password)</text><ellipse cx="160" cy="155.8516" fill="#84BE84" rx="3" ry="3" style="stroke: #038048; stroke-width: 1.0;"/><text fill="#000000" font-family="sans-serif" font-size="11" lengthAdjust="spacingAndGlyphs" textLength="308" x="169" y="160.2705">completeProfile(firstName, lastName, contactNumber, userType)</text><ellipse cx="160" cy="169.6875" fill="#84BE84" rx="3" ry="3" style="stroke: #038048; stroke-width: 1.0;"/><text fill="#000000" font-family="sans-serif" font-size="11" lengthAdjust="spacingAndGlyphs" textLength="116" x="169" y="174.1064">signin(email, password)</text><ellipse cx="160" cy="183.5234" fill="#84BE84" rx="3" ry="3" style="stroke: #038048; stroke-width: 1.0;"/><text fill="#000000" font-family="sans-serif" font-size="11" lengthAdjust="spacingAndGlyphs" textLength="120" x="169" y="187.9424">recoverPassword(email)</text><ellipse cx="160" cy="197.3594" fill="#84BE84" rx="3" ry="3" style="stroke: #038048; stroke-width: 1.0;"/><text fill="#000000" font-family="sans-serif" font-size="11" lengthAdjust="spacingAndGlyphs" textLength="60" x="169" y="201.7783">verifyEmail()</text><!--class DONOR--><rect fill="#FEFECE" filter="url(#fgeyxor8gyvuz)" height="144.8516" id="DONOR" style="stroke: #A80036; stroke-width: 1.5;" width="280" x="6" y="472"/><ellipse cx="119.25" cy="488" fill="#ADD1B2" rx="11" ry="11" style="stroke: #A80036; stroke-width: 1.0;"/><path d="M122.0156,483.875 Q122.1719,483.6563 122.3594,483.5469 Q122.5469,483.4375 122.7656,483.4375 Q123.1406,483.4375 123.375,483.7031 Q123.6094,483.9531 123.6094,484.5625 L123.6094,486.0156 Q123.6094,486.625 123.375,486.8906 Q123.1406,487.1563 122.7656,487.1563 Q122.4219,487.1563 122.2188,486.9531 Q122.0156,486.7656 121.9063,486.25 Q121.8594,485.8906 121.6719,485.7031 Q121.3438,485.3281 120.7344,485.1094 Q120.125,484.8906 119.5,484.8906 Q118.7344,484.8906 118.0938,485.2188 Q117.4688,485.5469 116.9688,486.2969 Q116.4844,487.0469 116.4844,488.0781 L116.4844,489.1719 Q116.4844,490.4063 117.375,491.2344 Q118.2656,492.0469 119.8594,492.0469 Q120.7969,492.0469 121.4531,491.7969 Q121.8438,491.6406 122.2656,491.2031 Q122.5313,490.9375 122.6719,490.8594 Q122.8281,490.7813 123.0313,490.7813 Q123.3594,490.7813 123.6094,491.0469 Q123.875,491.2969 123.875,491.6406 Q123.875,491.9844 123.5313,492.3906 Q123.0313,492.9688 122.2344,493.2969 Q121.1563,493.75 119.8594,493.75 Q118.3438,493.75 117.1406,493.125 Q116.1563,492.625 115.4688,491.5625 Q114.7813,490.4844 114.7813,489.2031 L114.7813,488.0469 Q114.7813,486.7188 115.3906,485.5781 Q116.0156,484.4219 117.1094,483.8125 Q118.2031,483.1875 119.4375,483.1875 Q120.1719,483.1875 120.8125,483.3594 Q121.4688,483.5156 122.0156,483.875 Z "/><text fill="#000000" font-family="sans-serif" font-size="12" lengthAdjust="spacingAndGlyphs" textLength="45" x="139.75" y="492.9102">DONOR</text><line style="stroke: #A80036; stroke-width: 1.5;" x1="7" x2="285" y1="504" y2="504"/><ellipse cx="17" cy="515" fill="none" rx="3" ry="3" style="stroke: #038048; stroke-width: 1.0;"/><text fill="#000000" font-family="sans-serif" font-size="11" lengthAdjust="spacingAndGlyphs" textLength="46" x="26" y="519.4189">firstName</text><ellipse cx="17" cy="528.8359" fill="none" rx="3" ry="3" style="stroke: #038048; stroke-width: 1.0;"/><text fill="#000000" font-family="sans-serif" font-size="11" lengthAdjust="spacingAndGlyphs" textLength="44" x="26" y="533.2549">lastName</text><ellipse cx="17" cy="542.6719" fill="none" rx="3" ry="3" style="stroke: #038048; stroke-width: 1.0;"/><text fill="#000000" font-family="sans-serif" font-size="11" lengthAdjust="spacingAndGlyphs" textLength="127" x="26" y="547.0908">numberOfDonatedDevices</text><line style="stroke: #A80036; stroke-width: 1.5;" x1="7" x2="285" y1="553.5078" y2="553.5078"/><ellipse cx="17" cy="564.5078" fill="#84BE84" rx="3" ry="3" style="stroke: #038048; stroke-width: 1.0;"/><text fill="#000000" font-family="sans-serif" font-size="11" lengthAdjust="spacingAndGlyphs" textLength="222" x="26" y="568.9268">updateAccountDetails(userID, accountDetails)</text><ellipse cx="17" cy="578.3438" fill="#84BE84" rx="3" ry="3" style="stroke: #038048; stroke-width: 1.0;"/><text fill="#000000" font-family="sans-serif" font-size="11" lengthAdjust="spacingAndGlyphs" textLength="175" x="26" y="582.7627">donateDevice(userID, deviceDetails)</text><ellipse cx="17" cy="592.1797" fill="#84BE84" rx="3" ry="3" style="stroke: #038048; stroke-width: 1.0;"/><text fill="#000000" font-family="sans-serif" font-size="11" lengthAdjust="spacingAndGlyphs" textLength="253" x="26" y="596.5986">updateDeviceStatus(userID, deviceID, deviceDetails)</text><ellipse cx="17" cy="606.0156" fill="#84BE84" rx="3" ry="3" style="stroke: #038048; stroke-width: 1.0;"/><text fill="#000000" font-family="sans-serif" font-size="11" lengthAdjust="spacingAndGlyphs" textLength="254" x="26" y="610.4346">updateDeviceDetails(userID, deviceID, deviceDetails)</text><!--class NGO--><rect fill="#FEFECE" filter="url(#fgeyxor8gyvuz)" height="172.5234" id="NGO" style="stroke: #A80036; stroke-width: 1.5;" width="245" x="193.5" y="269"/><ellipse cx="298.25" cy="285" fill="#ADD1B2" rx="11" ry="11" style="stroke: #A80036; stroke-width: 1.0;"/><path d="M301.0156,280.875 Q301.1719,280.6563 301.3594,280.5469 Q301.5469,280.4375 301.7656,280.4375 Q302.1406,280.4375 302.375,280.7031 Q302.6094,280.9531 302.6094,281.5625 L302.6094,283.0156 Q302.6094,283.625 302.375,283.8906 Q302.1406,284.1563 301.7656,284.1563 Q301.4219,284.1563 301.2188,283.9531 Q301.0156,283.7656 300.9063,283.25 Q300.8594,282.8906 300.6719,282.7031 Q300.3438,282.3281 299.7344,282.1094 Q299.125,281.8906 298.5,281.8906 Q297.7344,281.8906 297.0938,282.2188 Q296.4688,282.5469 295.9688,283.2969 Q295.4844,284.0469 295.4844,285.0781 L295.4844,286.1719 Q295.4844,287.4063 296.375,288.2344 Q297.2656,289.0469 298.8594,289.0469 Q299.7969,289.0469 300.4531,288.7969 Q300.8438,288.6406 301.2656,288.2031 Q301.5313,287.9375 301.6719,287.8594 Q301.8281,287.7813 302.0313,287.7813 Q302.3594,287.7813 302.6094,288.0469 Q302.875,288.2969 302.875,288.6406 Q302.875,288.9844 302.5313,289.3906 Q302.0313,289.9688 301.2344,290.2969 Q300.1563,290.75 298.8594,290.75 Q297.3438,290.75 296.1406,290.125 Q295.1563,289.625 294.4688,288.5625 Q293.7813,287.4844 293.7813,286.2031 L293.7813,285.0469 Q293.7813,283.7188 294.3906,282.5781 Q295.0156,281.4219 296.1094,280.8125 Q297.2031,280.1875 298.4375,280.1875 Q299.1719,280.1875 299.8125,280.3594 Q300.4688,280.5156 301.0156,280.875 Z "/><text fill="#000000" font-family="sans-serif" font-size="12" lengthAdjust="spacingAndGlyphs" textLength="27" x="318.75" y="289.9102">NGO</text><line style="stroke: #A80036; stroke-width: 1.5;" x1="194.5" x2="437.5" y1="301" y2="301"/><ellipse cx="204.5" cy="312" fill="none" rx="3" ry="3" style="stroke: #038048; stroke-width: 1.0;"/><text fill="#000000" font-family="sans-serif" font-size="11" lengthAdjust="spacingAndGlyphs" textLength="72" x="213.5" y="316.4189">institutionName</text><ellipse cx="204.5" cy="325.8359" fill="none" rx="3" ry="3" style="stroke: #038048; stroke-width: 1.0;"/><text fill="#000000" font-family="sans-serif" font-size="11" lengthAdjust="spacingAndGlyphs" textLength="111" x="213.5" y="330.2549">numberOfBeneficiaries</text><ellipse cx="204.5" cy="339.6719" fill="none" rx="3" ry="3" style="stroke: #038048; stroke-width: 1.0;"/><text fill="#000000" font-family="sans-serif" font-size="11" lengthAdjust="spacingAndGlyphs" textLength="104" x="213.5" y="344.0908">totalDevicesReceived</text><ellipse cx="204.5" cy="353.5078" fill="none" rx="3" ry="3" style="stroke: #038048; stroke-width: 1.0;"/><text fill="#000000" font-family="sans-serif" font-size="11" lengthAdjust="spacingAndGlyphs" textLength="105" x="213.5" y="357.9268">totalDevicesAssigned</text><ellipse cx="204.5" cy="367.3438" fill="none" rx="3" ry="3" style="stroke: #038048; stroke-width: 1.0;"/><text fill="#000000" font-family="sans-serif" font-size="11" lengthAdjust="spacingAndGlyphs" textLength="105" x="213.5" y="371.7627">totalDefectiveDevices</text><ellipse cx="204.5" cy="381.1797" fill="none" rx="3" ry="3" style="stroke: #038048; stroke-width: 1.0;"/><text fill="#000000" font-family="sans-serif" font-size="11" lengthAdjust="spacingAndGlyphs" textLength="101" x="213.5" y="385.5986">totalRevokedDevices</text><line style="stroke: #A80036; stroke-width: 1.5;" x1="194.5" x2="437.5" y1="392.0156" y2="392.0156"/><ellipse cx="204.5" cy="403.0156" fill="#84BE84" rx="3" ry="3" style="stroke: #038048; stroke-width: 1.0;"/><text fill="#000000" font-family="sans-serif" font-size="11" lengthAdjust="spacingAndGlyphs" textLength="219" x="213.5" y="407.4346">registerBeneficiary(ngoID, beneficiaryDetails)</text><ellipse cx="204.5" cy="416.8516" fill="#84BE84" rx="3" ry="3" style="stroke: #038048; stroke-width: 1.0;"/><text fill="#000000" font-family="sans-serif" font-size="11" lengthAdjust="spacingAndGlyphs" textLength="179" x="213.5" y="421.2705">updateNGODetails(ngoID, ngoDetails)</text><ellipse cx="204.5" cy="430.6875" fill="#84BE84" rx="3" ry="3" style="stroke: #038048; stroke-width: 1.0;"/><text fill="#000000" font-family="sans-serif" font-size="11" lengthAdjust="spacingAndGlyphs" textLength="122" x="213.5" y="435.1064">viewBeneficiaries(ngoID)</text><!--class BENEFICIARY--><rect fill="#FEFECE" filter="url(#fgeyxor8gyvuz)" height="48" id="BENEFICIARY" style="stroke: #A80036; stroke-width: 1.5;" width="110" x="365" y="647"/><ellipse cx="380" cy="663" fill="#ADD1B2" rx="11" ry="11" style="stroke: #A80036; stroke-width: 1.0;"/><path d="M382.7656,658.875 Q382.9219,658.6563 383.1094,658.5469 Q383.2969,658.4375 383.5156,658.4375 Q383.8906,658.4375 384.125,658.7031 Q384.3594,658.9531 384.3594,659.5625 L384.3594,661.0156 Q384.3594,661.625 384.125,661.8906 Q383.8906,662.1563 383.5156,662.1563 Q383.1719,662.1563 382.9688,661.9531 Q382.7656,661.7656 382.6563,661.25 Q382.6094,660.8906 382.4219,660.7031 Q382.0938,660.3281 381.4844,660.1094 Q380.875,659.8906 380.25,659.8906 Q379.4844,659.8906 378.8438,660.2188 Q378.2188,660.5469 377.7188,661.2969 Q377.2344,662.0469 377.2344,663.0781 L377.2344,664.1719 Q377.2344,665.4063 378.125,666.2344 Q379.0156,667.0469 380.6094,667.0469 Q381.5469,667.0469 382.2031,666.7969 Q382.5938,666.6406 383.0156,666.2031 Q383.2813,665.9375 383.4219,665.8594 Q383.5781,665.7813 383.7813,665.7813 Q384.1094,665.7813 384.3594,666.0469 Q384.625,666.2969 384.625,666.6406 Q384.625,666.9844 384.2813,667.3906 Q383.7813,667.9688 382.9844,668.2969 Q381.9063,668.75 380.6094,668.75 Q379.0938,668.75 377.8906,668.125 Q376.9063,667.625 376.2188,666.5625 Q375.5313,665.4844 375.5313,664.2031 L375.5313,663.0469 Q375.5313,661.7188 376.1406,660.5781 Q376.7656,659.4219 377.8594,658.8125 Q378.9531,658.1875 380.1875,658.1875 Q380.9219,658.1875 381.5625,658.3594 Q382.2188,658.5156 382.7656,658.875 Z "/><text fill="#000000" font-family="sans-serif" font-size="12" lengthAdjust="spacingAndGlyphs" textLength="78" x="394" y="667.9102">BENEFICIARY</text><line style="stroke: #A80036; stroke-width: 1.5;" x1="366" x2="474" y1="679" y2="679"/><line style="stroke: #A80036; stroke-width: 1.5;" x1="366" x2="474" y1="687" y2="687"/><!--class DEVICE--><rect fill="#FEFECE" filter="url(#fgeyxor8gyvuz)" height="48" id="DEVICE" style="stroke: #A80036; stroke-width: 1.5;" width="76" x="274" y="852"/><ellipse cx="289" cy="868" fill="#ADD1B2" rx="11" ry="11" style="stroke: #A80036; stroke-width: 1.0;"/><path d="M291.7656,863.875 Q291.9219,863.6563 292.1094,863.5469 Q292.2969,863.4375 292.5156,863.4375 Q292.8906,863.4375 293.125,863.7031 Q293.3594,863.9531 293.3594,864.5625 L293.3594,866.0156 Q293.3594,866.625 293.125,866.8906 Q292.8906,867.1563 292.5156,867.1563 Q292.1719,867.1563 291.9688,866.9531 Q291.7656,866.7656 291.6563,866.25 Q291.6094,865.8906 291.4219,865.7031 Q291.0938,865.3281 290.4844,865.1094 Q289.875,864.8906 289.25,864.8906 Q288.4844,864.8906 287.8438,865.2188 Q287.2188,865.5469 286.7188,866.2969 Q286.2344,867.0469 286.2344,868.0781 L286.2344,869.1719 Q286.2344,870.4063 287.125,871.2344 Q288.0156,872.0469 289.6094,872.0469 Q290.5469,872.0469 291.2031,871.7969 Q291.5938,871.6406 292.0156,871.2031 Q292.2813,870.9375 292.4219,870.8594 Q292.5781,870.7813 292.7813,870.7813 Q293.1094,870.7813 293.3594,871.0469 Q293.625,871.2969 293.625,871.6406 Q293.625,871.9844 293.2813,872.3906 Q292.7813,872.9688 291.9844,873.2969 Q290.9063,873.75 289.6094,873.75 Q288.0938,873.75 286.8906,873.125 Q285.9063,872.625 285.2188,871.5625 Q284.5313,870.4844 284.5313,869.2031 L284.5313,868.0469 Q284.5313,866.7188 285.1406,865.5781 Q285.7656,864.4219 286.8594,863.8125 Q287.9531,863.1875 289.1875,863.1875 Q289.9219,863.1875 290.5625,863.3594 Q291.2188,863.5156 291.7656,863.875 Z "/><text fill="#000000" font-family="sans-serif" font-size="12" lengthAdjust="spacingAndGlyphs" textLength="44" x="303" y="872.9102">DEVICE</text><line style="stroke: #A80036; stroke-width: 1.5;" x1="275" x2="349" y1="884" y2="884"/><line style="stroke: #A80036; stroke-width: 1.5;" x1="275" x2="349" y1="892" y2="892"/><!--reverse link USER to NGO--><path d="M316,228.609 C316,242.175 316,255.792 316,268.796 " fill="none" id="USER&lt;-NGO" style="stroke: #A80036; stroke-width: 1.0;"/><polygon fill="none" points="309,228.147,316,208.147,323,228.147,309,228.147" style="stroke: #A80036; stroke-width: 1.0;"/><!--reverse link USER to BENEFICIARY--><path d="M431.373,224.383 C441.062,238.586 449.586,253.566 456,269 C515.4,411.941 527.148,473.144 470,617 C465.517,628.286 457.364,638.56 448.926,646.995 " fill="none" id="USER&lt;-BENEFICIARY" style="stroke: #A80036; stroke-width: 1.0;"/><polygon fill="none" points="425.623,228.377,419.522,208.085,436.946,220.144,425.623,228.377" style="stroke: #A80036; stroke-width: 1.0;"/><!--reverse link USER to DONOR--><path d="M201.252,224.65 C191.444,238.803 182.721,253.698 176,269 C147.613,333.632 141.957,414.731 142.274,471.969 " fill="none" id="USER&lt;-DONOR" style="stroke: #A80036; stroke-width: 1.0;"/><polygon fill="none" points="195.718,220.36,213.208,208.397,206.995,228.655,195.718,220.36" style="stroke: #A80036; stroke-width: 1.0;"/><!--reverse link NGO to BENEFICIARY--><path d="M347.262,454.571 C363.043,503.486 382.681,563.485 401,617 C404.356,626.803 408.19,637.574 411.531,646.832 " fill="none" id="NGO&lt;-BENEFICIARY" style="stroke: #A80036; stroke-width: 1.0;"/><polygon fill="#FFFFFF" points="343.233,442.06,341.2654,448.9975,346.9124,453.482,348.88,446.5445,343.233,442.06" style="stroke: #A80036; stroke-width: 1.0;"/><text fill="#000000" font-family="sans-serif" font-size="13" lengthAdjust="spacingAndGlyphs" textLength="63" x="402" y="549.9951">belongs_to</text><!--link DONOR to DEVICE--><path d="M168.562,617.221 C181.758,655.516 199.953,702.89 221,743 C241.134,781.369 270.431,821.8847 290.302,847.7484 " fill="none" id="DONOR-&gt;DEVICE" style="stroke: #A80036; stroke-width: 1.0;"/><polygon fill="#A80036" points="293.407,851.771,291.0727,842.2028,290.3512,847.8134,284.7406,847.092,293.407,851.771" style="stroke: #A80036; stroke-width: 1.0;"/><text fill="#000000" font-family="sans-serif" font-size="13" lengthAdjust="spacingAndGlyphs" textLength="46" x="222" y="739.4951">donates</text><text fill="#000000" font-family="sans-serif" font-size="13" lengthAdjust="spacingAndGlyphs" textLength="20" x="149.7593" y="638.4337">0..*</text><text fill="#000000" font-family="sans-serif" font-size="13" lengthAdjust="spacingAndGlyphs" textLength="20" x="266.08" y="841.0525">1..*</text><!--link NGO to DEVICE--><path d="M315.339,442.12 C314.421,561.218 312.804,770.796 312.219,846.616 " fill="none" id="NGO-&gt;DEVICE" style="stroke: #A80036; stroke-width: 1.0;"/><polygon fill="#A80036" points="312.179,851.8408,316.2486,842.872,312.2177,846.8409,308.2488,842.8101,312.179,851.8408" style="stroke: #A80036; stroke-width: 1.0;"/><text fill="#000000" font-family="sans-serif" font-size="13" lengthAdjust="spacingAndGlyphs" textLength="45" x="315" y="739.4951">assigns</text><text fill="#000000" font-family="sans-serif" font-size="13" lengthAdjust="spacingAndGlyphs" textLength="20" x="294.5228" y="462.8912">0..*</text><text fill="#000000" font-family="sans-serif" font-size="13" lengthAdjust="spacingAndGlyphs" textLength="20" x="314.7874" y="841.1402">1..*</text><!--link BENEFICIARY to DEVICE--><path d="M407.611,695.287 C387.592,732.915 348.213,806.9322 326.768,847.241 " fill="none" id="BENEFICIARY-&gt;DEVICE" style="stroke: #A80036; stroke-width: 1.0;"/><polygon fill="#A80036" points="324.244,851.9849,332.0024,845.9181,326.5924,847.5707,324.9397,842.1606,324.244,851.9849" style="stroke: #A80036; stroke-width: 1.0;"/><text fill="#000000" font-family="sans-serif" font-size="13" lengthAdjust="spacingAndGlyphs" textLength="47" x="367" y="787.4951">recieves</text><text fill="#000000" font-family="sans-serif" font-size="13" lengthAdjust="spacingAndGlyphs" textLength="20" x="382.1537" y="716.6949">0..*</text><text fill="#000000" font-family="sans-serif" font-size="13" lengthAdjust="spacingAndGlyphs" textLength="20" x="329.944" y="841.3212">1..*</text><!--
@startuml TechRelief
class USER {
 -passwordHash
 +id
 +email
 +contactNumber
 +userType
 +physicalAddress
 +signup(email, password)
 +completeProfile(firstName, lastName, contactNumber, userType)
 +signin(email, password)
 +recoverPassword(email)
 +verifyEmail()
}

class DONOR {
   +firstName
   +lastName
   +numberOfDonatedDevices
   +updateAccountDetails(userID, accountDetails)
   +donateDevice(userID, deviceDetails)
   +updateDeviceStatus(userID, deviceID, deviceDetails)
   +updateDeviceDetails(userID, deviceID, deviceDetails)
}

class NGO {
  +institutionName
  +numberOfBeneficiaries
  +totalDevicesReceived
  +totalDevicesAssigned
  +totalDefectiveDevices
  +totalRevokedDevices
  +registerBeneficiary(ngoID, beneficiaryDetails)
  +updateNGODetails(ngoID, ngoDetails)
  +viewBeneficiaries(ngoID)
}


class BENEFICIARY {
}

class DEVICE {
}


USER ^- - NGO
USER ^- - BENEFICIARY
USER ^- - DONOR

NGO o- - BENEFICIARY : belongs_to
DONOR "0..*" - - -> "1..*" DEVICE: donates
NGO "0..*" - - -> "1..*" DEVICE: assigns

BENEFICIARY "0..*" - - -> "1..*" DEVICE: recieves

@enduml

PlantUML version 1.2019.09(Mon Aug 26 18:19:51 CAT 2019)
(GPL source distribution)
Java Runtime: OpenJDK Runtime Environment
JVM: OpenJDK 64-Bit Server VM
Java Version: 11.0.5+10-LTS
Operating System: Windows 10
OS Version: 10.0
Default Encoding: Cp1252
Language: en
Country: ZA
--></g></svg>